<?xml version="1.0" standalone="no"?>
<!DOCTYPE svg PUBLIC "-//W3C//DTD SVG 20010904//EN"
 "http://www.w3.org/TR/2001/REC-SVG-20010904/DTD/svg10.dtd">
<svg version="1.0" xmlns="http://www.w3.org/2000/svg"
 width="500.000000pt" height="500.000000pt" viewBox="0 0 500.000000 500.000000"
 preserveAspectRatio="xMidYMid meet">
<metadata>
Created by potrace 1.15, written by Peter Selinger 2001-2017
</metadata>
<g transform="translate(0.000000,500.000000) scale(0.100000,-0.100000)"
fill="#000000" stroke="none">
<path d="M0 2505 l0 -2495 2500 0 2500 0 0 2495 0 2495 -691 -2 -691 -3 -37
-150 c-153 -608 -476 -1212 -898 -1682 -83 -92 -274 -267 -412 -377 -91 -73
-93 -74 -174 -85 -328 -46 -647 -113 -811 -170 l-59 -21 139 143 c143 146 235
248 529 591 211 247 289 344 496 627 278 380 380 509 579 729 86 95 200 235
279 343 l43 58 -33 -3 c-30 -3 -42 -15 -117 -123 -106 -151 -166 -226 -317
-394 -261 -292 -361 -413 -575 -696 -319 -422 -468 -598 -749 -889 -93 -96
-221 -234 -285 -307 -105 -121 -123 -137 -196 -175 -44 -22 -80 -39 -80 -37 0
2 21 70 46 151 25 81 78 276 118 433 l73 286 118 199 c156 262 341 552 478
748 245 352 401 529 701 798 6 4 -549 8 -1232 8 l-1242 0 0 -2495z m3314 -452
l39 -6 -6 -96 c-14 -259 -121 -492 -315 -688 -258 -260 -527 -367 -872 -348
-375 20 -591 66 -719 153 -292 198 -397 283 -431 348 -12 22 -9 28 36 76 76
82 161 153 264 222 208 139 378 199 690 245 74 11 212 36 305 56 94 19 216 39
270 44 101 10 667 5 739 -6z"/>
<path d="M2665 2000 c-127 -8 -259 -27 -380 -56 -33 -8 -155 -30 -272 -49
-297 -49 -413 -85 -573 -176 -102 -57 -207 -136 -293 -220 l-72 -69 62 -59
c76 -71 324 -244 413 -287 191 -94 731 -136 955 -74 157 43 305 133 456 278
191 183 296 390 323 638 l7 61 -58 6 c-106 11 -436 15 -568 7z"/>
</g>
</svg>
